<svg width="215" height="299" xmlns="http://www.w3.org/2000/svg" xmlns:xlink="http://www.w3.org/1999/xlink"><defs><linearGradient x1="50%" y1="0%" x2="50%" y2="100%" id="c"><stop stop-color="#4338CA" offset="0%"/><stop offset="100%"/></linearGradient><rect id="a" x="0" y="0" width="215" height="299" rx="10"/></defs><g fill="none" fill-rule="evenodd"><mask id="b" fill="#fff"><use xlink:href="#a"/></mask><use fill="#FFF" xlink:href="#a"/><g mask="url(#b)" fill="#F4F4F4" fill-rule="nonzero"><path d="m33.339 154.692-8.08-6.543a5.204 5.204 0 0 0-7.317.768 5.204 5.204 0 0 0 .769 7.317l8.08 6.544a5.204 5.204 0 0 0 7.317-.77 5.204 5.204 0 0 0-.769-7.316Zm29.253-3.069-32.33-26.18a5.196 5.196 0 0 0-7.31.765 5.201 5.201 0 0 0 .766 7.314l32.331 26.181a5.201 5.201 0 0 0 7.314-.77 5.196 5.196 0 0 0-.77-7.31Zm5.774-15.397a5.201 5.201 0 0 0-.766-7.314l-24.248-19.636a5.201 5.201 0 0 0-7.314.771 5.196 5.196 0 0 0 .77 7.31l24.248 19.635a5.194 5.194 0 0 0 7.31-.766ZM105.413 131.168 48.292 84.912c-2.253-1.825-5.546-1.492-7.353.74-1.807 2.231-1.448 5.52.806 7.345l57.12 46.256c2.254 1.825 5.546 1.492 7.353-.74 1.808-2.231 1.448-5.52-.805-7.345Zm29.404-2.943-65.28-52.863c-2.253-1.824-5.541-1.497-7.348.735-1.808 2.231-1.448 5.521.805 7.346l65.28 52.862c2.253 1.824 5.548 1.494 7.355-.738 1.807-2.231 1.441-5.518-.812-7.342Zm29.414-2.952L98.95 72.41c-2.253-1.824-5.545-1.492-7.353.74-1.807 2.231-1.443 5.516.81 7.34l65.282 52.865c2.253 1.824 5.542 1.497 7.349-.735 1.807-2.231 1.447-5.52-.806-7.346ZM201.723 128.178 87.8 35.925c-2.247-1.82-5.534-1.483-7.342.75-1.807 2.23-1.453 5.517.794 7.336l113.923 92.253c2.247 1.82 5.535 1.483 7.342-.749 1.807-2.232 1.453-5.517-.794-7.337ZM78.068 14.668l113.92 92.252c2.247 1.82 5.537 1.485 7.345-.747 1.807-2.232 1.446-5.515-.8-7.334L84.611 6.588c-2.247-1.82-5.53-1.488-7.338.744-1.807 2.232-1.453 5.517.794 7.337ZM227.9 95.853 113.977 3.6c-2.247-1.819-5.53-1.487-7.342.75-1.807 2.231-1.449 5.512.798 7.331l113.923 92.253c2.247 1.82 5.53 1.488 7.338-.744 1.811-2.236 1.453-5.517-.794-7.337ZM259.808 108.989c2.245 1.817 5.53 1.479 7.337-.753 1.807-2.231 1.455-5.515-.79-7.333L136.312-4.405c-2.244-1.817-5.53-1.48-7.337.753-1.807 2.231-1.455 5.515.79 7.332L259.807 108.99Zm-21.006-57.156-105.66-85.561c-2.243-1.818-5.527-1.487-7.334.745-1.808 2.232-1.453 5.518.791 7.335l105.657 85.56c2.244 1.816 5.532 1.48 7.34-.751 1.809-2.23 1.45-5.51-.794-7.328Zm78.112 36.487L129.976-63.059c-2.244-1.817-5.53-1.479-7.336.753-1.808 2.231-1.451 5.51.793 7.328L310.37 96.4c2.245 1.817 5.526 1.484 7.333-.748 1.807-2.232 1.455-5.515-.79-7.333Z"/></g><rect stroke="url(#c)" stroke-width="2" x="1" y="1" width="213" height="297" rx="10"/></g></svg>