<svg width="85" height="85" xmlns="http://www.w3.org/2000/svg"><g fill="none" fill-rule="evenodd"><path d="M0 42.5C0 65.97 19.028 85 42.5 85 65.97 85 85 65.97 85 42.5 85 19.028 65.97 0 42.5 0 19.028 0 0 19.028 0 42.5Z" fill="#28176D" fill-rule="nonzero"/><path d="M19.682 58.037c-1.215-3.952 3.218-5.915 2.604-11.28-.547-4.725-4.075-5.32-4.277-9.35-.317-6.351 8.217-11.3 9.222-11.882 5.775-3.357 15.287-5.36 20.172-1.124 3.63 3.146 1.592 7.025 5.566 9.985 4.297 3.199 8.574.073 12.177 3.086 3.96 3.324 2.766 10.46 2.388 12.747-1.2 7.183-6.456 16.243-13.108 16.758-5.08.397-6.2-4.56-13.129-4.744-5.275-.139-6.362 2.683-11.523 2.101-3.717-.416-8.932-2.518-10.092-6.297Z" fill="#7B49B6" fill-rule="nonzero"/><path d="M22 51c-.358.335-.691.67-1 1 .333-.323.679-.652 1-1Zm43.224-15.973c-3.495-3.128-7.658.117-11.834-3.197-3.855-3.066-1.882-7.084-5.409-10.343-4.746-4.387-13.99-2.313-19.602 1.164-.8.493-6.517 4.039-8.379 8.926 2.327-4.038 6.897-6.865 7.605-7.304 5.612-3.477 14.856-5.55 19.603-1.163 3.527 3.258 1.547 7.276 5.408 10.343 4.177 3.313 8.333.075 11.834 3.196 3.849 3.437 2.688 10.836 2.321 13.205-.36 2.306-1.101 4.791-2.144 7.146 1.45-2.807 2.472-5.928 2.918-8.769.373-2.368 1.527-9.768-2.321-13.204Z" fill="#7B49B6" fill-rule="nonzero"/><path fill="#313145" fill-rule="nonzero" d="M18 31h50v28H18z"/><path fill="#F4F4F4" fill-rule="nonzero" d="M18 30h50v3H18z"/><path d="M19 31.5a.5.5 0 0 0 1 0 .5.5 0 1 0-1 0Z" fill="#F93E3E" fill-rule="nonzero"/><path d="M20.5 31.5a.5.5 0 0 0 1 0 .5.5 0 1 0-1 0Z" fill="#F4D225" fill-rule="nonzero"/><path d="M22 31.5a.5.5 0 0 0 1 0 .5.5 0 1 0-1 0Z" fill="#6BDDAC" fill-rule="nonzero"/><path fill="#FFF" fill-rule="nonzero" d="M24 35h36v24H24z"/><path d="M19 33h41.158v1.967H19V33Zm41.569.222H68V38.9h-7.431v-5.678Zm0 6.103H68V58h-7.431V39.325Z" fill="#34344C" fill-rule="nonzero"/><path fill="#8557DA" fill-rule="nonzero" d="M61 39h7v3h-7z"/><path fill="#FC3A64" fill-rule="nonzero" d="M61 43h7v3h-7z"/><path fill="#F8C642" fill-rule="nonzero" d="M61 47h7v3h-7z"/><path d="M16.971 43h4.198l.09.022c.275.063.559.1.824.193 1.158.404 2.122 1.493 2.079 2.94-.027.898-.005 1.797-.005 2.695v.142c.05.01.09.02.132.025.969.14 1.706.973 1.708 1.947.005 2.022.004 4.044-.002 6.067 0 .18-.031.365-.082.538-.252.862-1.02 1.426-1.94 1.428-1.648.003-3.296 0-4.944 0-1.687 0-3.374.008-5.06-.003a1.982 1.982 0 0 1-1.967-1.987c-.003-2.007-.002-4.013 0-6.02a1.987 1.987 0 0 1 1.426-1.907c.17-.05.347-.07.537-.106v-.126c0-.922-.006-1.844.003-2.765.003-.247.022-.501.085-.738.296-1.121 1.047-1.815 2.124-2.175.255-.086.529-.115.794-.17Zm5.105 5.99c.003-.034.007-.057.007-.08-.002-.626.003-1.252-.01-1.878a4.102 4.102 0 0 0-.157-1.104c-.16-.531-.505-.87-1.047-.983a4.551 4.551 0 0 0-.83-.094 73.96 73.96 0 0 0-2.064-.002 4.38 4.38 0 0 0-.603.05c-.745.11-1.164.489-1.331 1.224-.063.275-.104.56-.113.84-.021.642-.016 1.283-.02 1.925 0 .033.005.067.007.103h6.16Zm-2.096 5.644v-1.516a.942.942 0 0 0-.24-.64.959.959 0 0 0-1.06-.27.956.956 0 0 0-.635.902c-.003 1.018-.001 2.036 0 3.055a.97.97 0 0 0 1.057.95c.502-.045.877-.466.878-.989v-1.492Z" fill="#FC3A64" fill-rule="nonzero"/><text font-family="PingFangSC-Semibold, PingFang SC" font-size="16" font-weight="500" fill="#F8C642" transform="translate(11.77 19)">
                        <tspan x="15.367" y="34">NFT</tspan>
                    </text><path d="m19.061 56.736 2.256 1.239c.106.059.226-.038.205-.156l-.432-2.633a.161.161 0 0 1 .043-.134l1.824-1.861c.085-.09.036-.237-.078-.252l-2.517-.386a.137.137 0 0 1-.106-.081l-1.131-2.389a.139.139 0 0 0-.255 0l-1.124 2.396a.149.149 0 0 1-.106.082l-2.518.385c-.12.015-.162.163-.078.252l1.825 1.862c.035.037.05.081.042.133l-.431 2.633c-.021.119.099.215.205.156l2.256-1.239c.035-.03.078-.03.12-.007Z" fill="#FFF" fill-rule="nonzero"/></g></svg>