<svg width="16" height="14" xmlns="http://www.w3.org/2000/svg"><path d="M14.371 3.985c0-.153-.003-.305-.01-.455A6.833 6.833 0 0 0 16 1.732a6.201 6.201 0 0 1-1.886.527A3.43 3.43 0 0 0 15.558.334a6.234 6.234 0 0 1-2.084.82C12.876.46 12.022.017 11.078 0 9.265-.03 7.795 1.534 7.795 3.493c0 .278.029.548.086.809-2.73-.18-5.15-1.63-6.768-3.816a3.77 3.77 0 0 0-.444 1.792c0 1.24.58 2.344 1.46 2.995a3.094 3.094 0 0 1-1.487-.465v.046c0 1.734 1.132 3.187 2.634 3.526-.276.08-.566.122-.865.12a2.935 2.935 0 0 1-.617-.069c.417 1.422 1.63 2.46 3.066 2.495-1.124.95-2.54 1.519-4.076 1.515-.265 0-.527-.018-.784-.051C1.453 13.407 3.178 14 5.033 14c6.037.001 9.338-5.362 9.338-10.015Z" fill="#00B7FF" fill-rule="nonzero"/></svg>