<svg width="21" height="20" xmlns="http://www.w3.org/2000/svg"><path d="M2.87 0c.45 0 .83.157 1.144.47.314.315.47.703.47 1.166V2.9c0 .462-.156.855-.47 1.177a1.537 1.537 0 0 1-1.145.483H1.591a1.51 1.51 0 0 1-1.12-.483A1.625 1.625 0 0 1 0 2.9V1.636C0 1.173.157.785.47.47A1.53 1.53 0 0 1 1.591 0H2.87Zm16.539 0c.434 0 .807.157 1.12.47.314.315.471.703.471 1.166V2.9c0 .462-.157.855-.47 1.177a1.51 1.51 0 0 1-1.121.483H9.114c-.45 0-.832-.161-1.146-.483a1.625 1.625 0 0 1-.47-1.177V1.636c0-.463.157-.851.47-1.165C8.282.157 8.664 0 9.114 0h10.295ZM2.869 7.708c.45 0 .832.16 1.145.483.314.322.47.714.47 1.177v1.264c0 .446-.156.83-.47 1.152a1.537 1.537 0 0 1-1.145.484H1.591a1.51 1.51 0 0 1-1.12-.484A1.595 1.595 0 0 1 0 10.632V9.368c0-.463.157-.855.47-1.177a1.51 1.51 0 0 1 1.121-.483H2.87Zm16.54 0c.434 0 .807.16 1.12.483.314.322.471.714.471 1.177v1.264c0 .446-.157.83-.47 1.152a1.51 1.51 0 0 1-1.121.484H9.114c-.45 0-.832-.161-1.146-.484a1.595 1.595 0 0 1-.47-1.152V9.368c0-.463.157-.855.47-1.177a1.537 1.537 0 0 1 1.146-.483h10.295ZM2.869 15.44c.45 0 .832.161 1.145.483.314.322.47.706.47 1.153v1.264c0 .462-.156.855-.47 1.177A1.537 1.537 0 0 1 2.87 20H1.591a1.51 1.51 0 0 1-1.12-.483A1.625 1.625 0 0 1 0 18.34v-1.264c0-.447.157-.83.47-1.153a1.51 1.51 0 0 1 1.121-.483H2.87Zm16.54 0c.434 0 .807.161 1.12.483.314.322.471.706.471 1.153v1.264c0 .462-.157.855-.47 1.177a1.51 1.51 0 0 1-1.121.483H9.114c-.45 0-.832-.161-1.146-.483a1.625 1.625 0 0 1-.47-1.177v-1.264c0-.447.157-.83.47-1.153a1.537 1.537 0 0 1 1.146-.483h10.295Z" fill="#000" fill-rule="nonzero"/></svg>