<svg width="21" height="20" xmlns="http://www.w3.org/2000/svg"><g fill="#040000" fill-rule="nonzero"><path d="M10.19 5.468V3.355h6.338v2.113H10.19Zm0 3.107V6.462h6.338v2.113H10.19Zm0 4.846V11.31h6.338v2.112H10.19Zm0 3.107v-2.112h6.338v2.112H10.19ZM8.45 8.575H3.355V3.48H8.45v5.095Zm0 7.953H3.355v-5.095H8.45v5.095Z"/><path d="M18.268 16.652c0 .87-.746 1.616-1.616 1.616H3.232c-.87 0-1.616-.746-1.616-1.616V10.19H0v6.462c0 1.74 1.491 3.231 3.231 3.231h13.546c1.74 0 3.23-1.49 3.23-3.23V10.19h-1.615v6.462h-.124ZM16.652 0H3.232C1.491 0 0 1.491 0 3.231v6.462h1.616V3.231c0-.87.745-1.615 1.615-1.615h13.546c.87 0 1.615.745 1.615 1.615v6.462h1.491V3.231c0-1.74-1.49-3.231-3.23-3.231Z"/></g></svg>