<svg width="19" height="20" xmlns="http://www.w3.org/2000/svg"><g fill="#000" fill-rule="nonzero"><path d="M16.973 1.625h-2.026v-1c0-.25-.38-.625-.76-.625s-.634.25-.634.625V1.5H6.08V.625C6.08.375 5.827 0 5.447 0s-.634.375-.634.625V1.5H2.027C.887 1.625 0 2.5 0 3.5V18c0 1.125.887 2 2.027 2h14.946c1.14 0 2.027-.875 2.027-2V3.5c0-1-.887-1.875-2.027-1.875ZM17.607 18c0 .375-.254.625-.634.625H2.027c-.38 0-.634-.25-.634-.625V3.5c0-.375.254-.625.634-.625h2.66V3c.126.375.38.75.76.75s.633-.25.633-.625v-.25h7.473V3c0 .375.254.625.634.625s.633-.25.633-.625v-.125h2.027c.38 0 .633.25.633.625V18h.127Z"/><path d="M14.737 5.926H4.263c-.366 0-.61.26-.61.65 0 .391.244.781.61.781h10.474c.366 0 .61-.26.61-.65s-.244-.781-.61-.781Zm0 4.164H4.263c-.366 0-.61.26-.61.65 0 .391.244.651.61.651h10.474c.366 0 .61-.26.61-.65s-.244-.65-.61-.65ZM9.5 14.254H4.263c-.366 0-.61.26-.61.65 0 .391.244.652.61.652H9.5c.365 0 .609-.26.609-.651 0-.39-.244-.65-.609-.65Z"/></g></svg>