<svg width="26" height="20" xmlns="http://www.w3.org/2000/svg"><path d="m4.365 11.424.009.008 7.576 6.51c.62.532 1.545.547 2.182.034l7.812-6.297c2.528-1.81 3.077-5.284 1.226-7.758-1.85-2.474-5.4-3.011-7.929-1.2-.475.34-.894.752-1.24 1.219l-.681.918-.682-.917C10.798 1.46 7.251.908 4.715 2.708c-2.536 1.8-3.1 5.272-1.26 7.753a5.6 5.6 0 0 0 .91.963ZM.688 7.199C.688 3.223 3.982 0 8.046 0c1.986 0 3.889.786 5.274 2.18 2.833-2.85 7.49-2.914 10.404-.141a7.124 7.124 0 0 1 2.227 5.16c.006 2.28-1.099 4.427-2.974 5.781l-7.773 6.267a3.425 3.425 0 0 1-4.365-.066l-7.572-6.508A7.12 7.12 0 0 1 .688 7.199Z" fill="#E02020" fill-rule="nonzero"/></svg>