<svg width="19" height="20" xmlns="http://www.w3.org/2000/svg"><path d="M2.698 2.317h13.919c.456 0 .86.212 1.159.516.28.287.474.749.474 1.197v14.22c0 .447-.194.929-.474 1.215-.299.305-.703.535-1.16.535H2.699c-.439 0-.913-.23-1.212-.535-.297-.286-.544-.768-.544-1.215V4.03c0-.448.247-.91.544-1.197a1.788 1.788 0 0 1 1.212-.516ZM16.617 3.56H2.697c-.175 0-.254-.043-.377.083-.14.126-.114.19-.114.388v14.22c0 .197-.026.256.114.381.123.126.202.078.378.078h13.919c.193 0 .226.048.35-.078.122-.125.068-.184.068-.381V4.03c0-.197.054-.262-.069-.388s-.156-.083-.35-.083ZM4.685.484c0-.269.038-.484.283-.484.263 0 .3.215.3.484v2.364c0 .268-.037.483-.3.483-.245 0-.283-.215-.283-.483V.484Zm4.279 0c0-.269.062-.484.324-.484.246 0 .308.215.308.484v2.364c0 .268-.062.483-.308.483-.262 0-.324-.215-.324-.483V.484Zm4.959 0c0-.269.062-.484.325-.484.245 0 .307.215.307.484v2.364c0 .268-.062.483-.307.483-.263 0-.325-.215-.325-.483V.484ZM4.468 14.113a.458.458 0 0 1-.648 0 .484.484 0 0 1 0-.663l3.646-3.725c.175-.197.473-.197.666 0 0 0 .018.018.018.036l.14.143.017.036c.509.555 1.929 2.185 1.946 2.185.105-.018 2.858-2.937 2.858-2.955a.458.458 0 0 1 .648 0c.193.179.193.465.018.662 0 0-3.016 3.206-3.471 3.224-.42.036-1.859-1.558-2.525-2.31l-3.313 3.366Zm3.84-4.173c.157.179.122.465-.053.627m6.468.25-2.559-2.614 2.752-.466-.193 3.08Z" fill="#000" fill-rule="nonzero"/></svg>