<svg xmlns="http://www.w3.org/2000/svg" xmlns:xlink="http://www.w3.org/1999/xlink" viewBox="0 0 450.18 469.1"><defs><style>.cls-1{fill:none;}.cls-2{fill:url(#未命名的渐变_9);}.cls-3{fill:url(#未命名的渐变_88);}.cls-4{opacity:0.9;fill:url(#未命名的渐变_125);}.cls-5{fill:url(#未命名的渐变_100);}</style><linearGradient id="未命名的渐变_9" x1="450.18" y1="236.35" x2="168.89" y2="236.35" gradientUnits="userSpaceOnUse"><stop offset="0" stop-color="aqua"/><stop offset="0.16" stop-color="#3ac1fe"/><stop offset="0.32" stop-color="#6f89fd"/><stop offset="0.44" stop-color="#9065fc"/><stop offset="0.51" stop-color="#9c58fc"/><stop offset="0.64" stop-color="#8750f0"/><stop offset="0.93" stop-color="#513dd2"/><stop offset="1" stop-color="#4338ca"/></linearGradient><linearGradient id="未命名的渐变_88" x1="0.1" y1="235.02" x2="311.78" y2="235.02" gradientTransform="matrix(1, 0, 0, 1.02, 0.2, -4.39)" gradientUnits="userSpaceOnUse"><stop offset="0" stop-color="aqua"/><stop offset="0.51" stop-color="aqua"/><stop offset="1" stop-color="aqua"/></linearGradient><linearGradient id="未命名的渐变_125" x1="170.04" y1="59.86" x2="350.85" y2="59.86" gradientUnits="userSpaceOnUse"><stop offset="0" stop-opacity="0"/><stop offset="0.6" stop-opacity="0.5"/></linearGradient><linearGradient id="未命名的渐变_100" x1="450.18" y1="234.51" x2="52.9" y2="234.51" gradientUnits="userSpaceOnUse"><stop offset="0" stop-color="#3fa9f5"/><stop offset="0.5" stop-color="aqua"/></linearGradient></defs><title>资源 37@4x Hellman3</title><g id="图层_2" data-name="图层 2"><g id="图层_1-2" data-name="图层 1"><path class="cls-1" d="M144.8,67.41Q118,67.41,105.48,75T89,98.43q-3.88,15.79-3.9,46.24V319.49q0,33.84,3.35,51t15.61,26.79q12.28,9.58,39.6,9.58h25.66V334.49q-.45-8.06-.45-16.54V155.32q0-8.81.45-17.11V67.41Z"/><path class="cls-2" d="M168.89,318q0,8.49.45,16.54V138.21q-.45,8.31-.45,17.11Z"/><path class="cls-3" d="M205.54,432.1c-19.51-24-33.59-55.51-35.83-97.05l-.08,74.35-25.94,0q-27.61,0-40-9.87T87.91,372q-3.37-17.66-3.33-52.4l.19-179.49q0-31.26,4-47.48t16.66-24q12.7-7.8,39.76-7.78l24.81,0-.07,72.68c2.32-42.63,20.26-71.38,39.62-94.81,12.06-14.61,46.39-29.47,68-36l30-2.68L145.25,0Q90,0,58.39,15.29T13.52,62.15Q.25,93.71.18,145.81L0,316.61q-.06,53.28,13.16,86.28t44.21,49.55q31,16.53,84,16.57l170.16.09-24-3.35C266.2,459,217.61,447,205.54,432.1Z"/><path class="cls-4" d="M170.54,0,170,60.76s0,58.52.3,59C180.64-1.36,297.54,0,297.54,0"/><path class="cls-5" d="M361.42,170.09V130.53q0-24.28-2.5-38.14a37.43,37.43,0,0,0-12.82-22.6Q335.8,61,313.91,61q-22.5,0-33.75,9.32t-14.7,24.87Q262,110.76,262,135.62V334q0,39,11.25,56.22t40.63,17.24q21.24,0,31.57-9t13.12-24q2.82-15,2.82-39.84V293.27h88.76V330q0,66.12-30.63,102.56T313.28,469q-35.7,0-61.95-8.19V7.91Q277.57,0,313.28,0q74.39,0,105.65,33.9t31.25,97.76v38.43ZM201.39,39q-28.68,34.41-32,97V333.12q3.39,61,32.36,96.15,18,21.78,49.63,31.65V7.86Q219.28,17.52,201.39,39Z"/></g></g></svg>